<svg xmlns="http://www.w3.org/2000/svg" xmlns:xlink="http://www.w3.org/1999/xlink" width="32" height="32" class="icon" p-id="8341" t="1566292427369" version="1.1" viewBox="0 0 1024 1024"><defs><style type="text/css"/></defs><path fill="#000" d="M256 341.333333l256 128 256-128-256-128-256 128z m276.864-208.384l341.034667 173.909334c20.736 10.581333 28.202667 34.56 16.682666 53.632a41.386667 41.386667 0 0 1-16.64 15.317333l-341.077333 173.909333a46.336 46.336 0 0 1-41.728 0L150.101333 375.808c-20.736-10.581333-28.202667-34.56-16.682666-53.632a41.386667 41.386667 0 0 1 16.64-15.317333l341.077333-173.909334c12.970667-6.613333 28.757333-6.613333 41.728 0z m0 587.349334a45.653333 45.653333 0 0 1-41.728 0l-341.034667-176.938667c-20.736-10.752-28.202667-35.157333-16.682666-54.528a41.642667 41.642667 0 0 1 16.64-15.573333 34.901333 34.901333 0 0 1 32.213333 0l308.906667 160.213333c12.928 6.741333 28.714667 6.741333 41.685333 0l308.864-160.213333a34.901333 34.901333 0 0 1 32.170667 0c20.736 10.752 28.202667 35.157333 16.682666 54.528a41.642667 41.642667 0 0 1-16.64 15.573333l-341.077333 176.938667z m0 170.666666a45.653333 45.653333 0 0 1-41.728 0l-341.034667-176.938666c-20.736-10.752-28.202667-35.157333-16.682666-54.528a41.642667 41.642667 0 0 1 16.64-15.573334 34.901333 34.901333 0 0 1 32.213333 0l308.906667 160.213334c12.928 6.741333 28.714667 6.741333 41.685333 0l308.864-160.213334a34.901333 34.901333 0 0 1 32.170667 0c20.736 10.752 28.202667 35.157333 16.682666 54.528a41.642667 41.642667 0 0 1-16.64 15.573334l-341.077333 176.938666z" p-id="8342"/></svg>