<svg xmlns="http://www.w3.org/2000/svg" xmlns:svg="http://www.w3.org/2000/svg" xmlns:xlink="http://www.w3.org/1999/xlink" id="svg5738" width="20" height="20" version="1.1"><defs id="defs5740"><linearGradient id="linearGradient4184" x1="3003" x2="3017" y1="10" y2="10" gradientTransform="translate(1,2.6171874e-6)" gradientUnits="userSpaceOnUse" xlink:href="#linearGradient4103"/><linearGradient id="linearGradient4103"><stop id="stop4105" offset="0" stop-color="#000" stop-opacity="1"/><stop id="stop4107" offset="1" stop-color="#000" stop-opacity="0"/></linearGradient></defs><metadata id="metadata5743"/><g id="layer1" transform="translate(0,-1032.3622)"><path color="#000" style="isolation:auto;mix-blend-mode:normal;solid-color:#000;solid-opacity:1;marker:none" id="rect9198" fill="#000" fill-opacity="1" fill-rule="nonzero" stroke="none" stroke-dasharray="none" stroke-dashoffset="0" stroke-linecap="butt" stroke-linejoin="miter" stroke-miterlimit="4" stroke-opacity="1" stroke-width="2" d="M 12.050781 2 C 11.795262 2 11.539542 2.0971762 11.34375 2.2929688 L 10.298828 3.3378906 C 9.9072437 3.7294757 9.9072437 4.360368 10.298828 4.7519531 L 15.248047 9.7011719 C 15.639631 10.092757 16.270525 10.092757 16.662109 9.7011719 L 17.707031 8.65625 C 18.098616 8.2646649 18.098616 7.6337726 17.707031 7.2421875 L 12.757812 2.2929688 C 12.56202 2.0971762 12.306301 2 12.050781 2 z M 8 8 C 7 8 7 9 7.5 9.5 C 7.833333 9.8333 8.5 10.5 8.5 10.5 L 7.5 11.5 C 7.5 11.5 7 12 7.5 12.5 C 8 13 8.5 12.5 8.5 12.5 L 9.5 11.5 L 10.5 12.5 C 11 13 12 13 12 12 L 12 8 L 8 8 z M 4 10.003906 C 3.74451 10.003906 3.4906916 10.103039 3.2949219 10.298828 L 2.2988281 11.294922 C 1.9072888 11.6865 1.9072888 12.315453 2.2988281 12.707031 L 3.296875 13.707031 C 3.6884144 14.098609 4.3193981 14.098609 4.7109375 13.707031 L 5.7070312 12.710938 C 6.0985706 12.31936 6.0985706 11.688453 5.7070312 11.296875 L 4.7070312 10.298828 C 4.5112616 10.103039 4.25549 10.003906 4 10.003906 z M 7.9960938 14 C 7.7405942 14 7.4848395 14.097187 7.2890625 14.292969 L 6.2949219 15.289062 C 5.9033679 15.680626 5.9033679 16.311561 6.2949219 16.703125 L 7.2929688 17.701172 C 7.6845227 18.092735 8.3135242 18.092735 8.7050781 17.701172 L 9.7011719 16.705078 C 10.092726 16.313515 10.092726 15.684532 9.7011719 15.292969 L 8.703125 14.292969 C 8.507348 14.097187 8.2515933 14 7.9960938 14 z" clip-rule="nonzero" color-interpolation="sRGB" color-interpolation-filters="linearRGB" color-rendering="auto" display="inline" enable-background="accumulate" image-rendering="auto" opacity="1" overflow="visible" shape-rendering="auto" text-rendering="auto" transform="translate(0,1032.3622)" visibility="visible"/></g></svg>