<svg xmlns="http://www.w3.org/2000/svg" xmlns:svg="http://www.w3.org/2000/svg" id="svg19167" width="20" height="20" version="1.1" viewBox="0 0 20 20"><metadata id="metadata19172"/><g id="layer1" transform="translate(0,-1032.3622)"><path id="rect6467" fill="#000" fill-opacity="1" fill-rule="nonzero" stroke="none" stroke-width="3" d="m 13.5,1035.8622 c -1.380712,0 -2.5,1.1193 -2.5,2.5 0,0.3208 0.04614,0.6244 0.15625,0.9063 l -3.75,3.75 c -0.281836,-0.1102 -0.585421,-0.1563 -0.90625,-0.1563 -1.380712,0 -2.5,1.1193 -2.5,2.5 0,1.3807 1.119288,2.5 2.5,2.5 1.380712,0 2.5,-1.1193 2.5,-2.5 0,-0.3208 -0.04614,-0.6244 -0.15625,-0.9062 l 3.75,-3.75 c 0.281836,0.1101 0.585421,0.1562 0.90625,0.1562 1.380712,0 2.5,-1.1193 2.5,-2.5 0,-1.3807 -1.119288,-2.5 -2.5,-2.5 z" color="#000" display="inline" enable-background="accumulate" overflow="visible" visibility="visible" style="marker:none"/></g></svg>