<svg xmlns="http://www.w3.org/2000/svg" xmlns:svg="http://www.w3.org/2000/svg" id="svg5738" width="20" height="20" version="1.1" viewBox="0 0 20 20"><metadata id="metadata5743"/><g id="layer1" transform="translate(0,-1032.3622)"><path id="rect2439-7" fill="#000" fill-opacity="1" fill-rule="nonzero" stroke="none" stroke-width="1" d="m 10,1035.7743 c -0.7849253,8e-4 -1.4968376,0.4606 -1.8203125,1.1758 l -3.1796875,0 -1,1 0,1 12,0 0,-1 -1,-1 -3.179688,0 c -0.323475,-0.7152 -1.035387,-1.175 -1.820312,-1.1758 z m -5,4.5879 0,7 c 0,1 1,2 2,2 l 6,0 c 1,0 2,-1 2,-2 l 0,-7 -2,0 0,5.5 -1.5,0 0,-5.5 -3,0 0,5.5 -1.5,0 0,-5.5 z" color="#000" display="inline" enable-background="accumulate" overflow="visible" visibility="visible" style="marker:none"/></g></svg>