<?xml version="1.0" encoding="UTF-8"?>
<svg width="23px" height="24px" viewBox="0 0 23 24" version="1.1" xmlns="http://www.w3.org/2000/svg" xmlns:xlink="http://www.w3.org/1999/xlink">
    <!-- Generator: Sketch 46.2 (44496) - http://www.bohemiancoding.com/sketch -->
    <title>墨子学院 ICON</title>
    <desc>Created with Sketch.</desc>
    <defs>
        <linearGradient x1="50%" y1="2.26801658%" x2="50%" y2="100%" id="linearGradient-1">
            <stop stop-color="#FFE100" offset="0%"></stop>
            <stop stop-color="#FFDF00" offset="100%"></stop>
        </linearGradient>
    </defs>
    <g id="视觉稿" stroke="none" stroke-width="1" fill="none" fill-rule="evenodd">
        <g id="导航" transform="translate(-227.000000, -1385.000000)">
            <g id="Group" transform="translate(-181.000000, 763.000000)">
                <g id="Group-4" transform="translate(377.000000, 64.000000)">
                    <g id="墨子学院-ICON" transform="translate(31.000000, 558.000000)">
                        <path d="M0.278718264,21.4458397 C0.104547244,21.6579801 0,21.9294623 0,22.2253628 C0,22.8915621 0.529943413,23.4339865 1.19127114,23.4540768 L1.18773574,23.46121 L21.8019967,23.46121 L21.7941039,23.4468059 C22.407256,23.377461 22.8837209,22.8570541 22.8837209,22.2253628 C22.8837209,21.9269689 22.7774044,21.6534066 22.600585,21.4404896 L14.5623679,8.131281 L14.5623679,3.40775754 L15.3188545,3.40775754 C16.2588956,3.40775754 17.0209495,2.64570368 17.0209495,1.7056626 L17.0209495,1.7056626 C17.0209495,0.765621517 16.2588956,0.00356765328 15.3188545,0.00356765328 L15.3188545,0.00356765328 L6.80837978,0.00356765328 L6.80837978,0.00356765328 C5.8683387,0.00356765328 5.10628484,0.765621517 5.10628484,1.7056626 L5.10628484,1.7056626 L5.10628484,1.7056626 C5.10628484,2.64570368 5.8683387,3.40775754 6.80837978,3.40775754 L6.80837978,3.40775754 L7.75398808,3.40775754 L7.75398808,8.12531795 L7.75010961,8.12531795 L0.278718264,21.4458397 Z" id="Combined-Shape" fill="url(#linearGradient-1)"></path>
                        <g id="Group-22" transform="translate(7.488372, 10.604651)" fill="#FFFFFF">
                            <circle id="Oval-14" cx="1.19379845" cy="5.75193798" r="1.19379845"></circle>
                            <circle id="Oval-14" cx="3.68992248" cy="1.73643411" r="1.73643411"></circle>
                        </g>
                    </g>
                </g>
            </g>
        </g>
    </g>
</svg>