<?xml version="1.0" encoding="UTF-8"?>
<svg width="38px" height="38px" viewBox="0 0 38 38" version="1.1" xmlns="http://www.w3.org/2000/svg" xmlns:xlink="http://www.w3.org/1999/xlink">
    <!-- Generator: Sketch 58 (84663) - https://sketch.com -->
    <title>cloth</title>
    <desc>Created with Sketch.</desc>
    <g id="cloth" stroke="none" stroke-width="1" fill="none" fill-rule="evenodd">
        <g id="Group-2-Copy-21">
            <circle id="Oval" fill="#26BEBA" cx="19" cy="19" r="19"></circle>
            <circle id="Oval-Copy" fill="#F7FFFF" cx="19" cy="19" r="16"></circle>
            <g id="Group-12" transform="translate(10.000000, 9.000000)" fill="#26BEBA">
                <path d="M12.91,6.00427273 L12.9103448,19 L9.43448276,19 L9.434,9.48627273 L12.91,6.00427273 Z M4.965,5.47627273 L8.441,8.95827273 L8.44137931,19 L4.96551724,19 L4.965,5.47627273 Z M17.8758621,2.48727273 L17.8758621,19 L13.9034483,19 L13.903,5.00927273 L16.421,2.48727273 L17.8758621,2.48727273 Z M1.98,2.48727273 L3.972,4.48227273 L3.97241379,19 L-1.59872116e-14,19 L-1.59872116e-14,2.48727273 L1.98,2.48727273 Z M12.9206807,-1.80522264e-13 L15.0273712,2.11052089 L9.05841469,8.0903301 L9.003,8.035 L8.9482669,8.0903301 L2.97931034,2.11052089 L5.08600089,-5.65991698e-13 L9.003,3.924 L12.9206807,-1.80522264e-13 Z M11.4735522,6.66133815e-16 L8.97732484,2.50131221 L6.48055222,6.66133815e-16 L11.4735522,6.66133815e-16 Z" id="形状结合"></path>
            </g>
        </g>
    </g>
</svg>