<?xml version="1.0" encoding="UTF-8" standalone="no"?>
<!DOCTYPE svg PUBLIC "-//W3C//DTD SVG 1.1//EN" "http://www.w3.org/Graphics/SVG/1.1/DTD/svg11.dtd">
<!-- Created with Vectornator (http://vectornator.io/) -->
<svg height="100%" stroke-miterlimit="10" style="fill-rule:nonzero;clip-rule:evenodd;stroke-linecap:round;stroke-linejoin:round;" version="1.1" viewBox="0 0 682.67 682.67" width="100%" xml:space="preserve" xmlns="http://www.w3.org/2000/svg" xmlns:vectornator="http://vectornator.io" xmlns:xlink="http://www.w3.org/1999/xlink">
<defs/>
<clipPath id="ArtboardFrame">
<rect height="682.67" width="682.67" x="0" y="0"/>
</clipPath>
<g clip-path="url(#ArtboardFrame)" id="Untitled" vectornator:layerName="Untitled">
<path d="M0 477.87L0 580.27C0.00552233 636.822 45.8483 682.664 102.4 682.67L204.8 682.67C223.424 682.351 238.356 667.162 238.356 648.535C238.356 629.908 223.424 614.719 204.8 614.4L102.4 614.4C83.5505 614.4 68.27 599.119 68.27 580.27L68.27 477.87C68.4812 465.535 62.0216 454.046 51.3734 447.817C40.7252 441.588 27.5448 441.588 16.8966 447.817C6.24842 454.046-0.211108 465.535 0 477.87ZM477.87 682.67L580.27 682.67C636.822 682.664 682.664 636.822 682.67 580.27L682.67 477.87C682.881 465.535 676.422 454.046 665.773 447.817C655.125 441.588 641.945 441.588 631.297 447.817C620.648 454.046 614.189 465.535 614.4 477.87L614.4 580.27C614.4 599.119 599.119 614.4 580.27 614.4L477.87 614.4C465.535 614.189 454.046 620.648 447.817 631.297C441.588 641.945 441.588 655.125 447.817 665.773C454.046 676.422 465.535 682.881 477.87 682.67ZM682.67 204.8L682.67 102.4C682.664 45.8483 636.822 0.00553344 580.27 1.15748e-06L477.87 1.15748e-06C465.535-0.211139 454.046 6.24838 447.817 16.8966C441.588 27.5448 441.588 40.7252 447.817 51.3734C454.046 62.0216 465.535 68.4811 477.87 68.27L580.27 68.27C599.119 68.27 614.4 83.5505 614.4 102.4L614.4 204.8C614.719 223.424 629.908 238.356 648.535 238.356C667.162 238.356 682.351 223.424 682.67 204.8ZM204.8 0L102.4 0C45.8483 0.00551165 0.00552271 45.8483-3.66902e-07 102.4L-3.66902e-07 204.8C0.318807 223.424 15.5078 238.356 34.135 238.356C52.7622 238.356 67.9512 223.424 68.27 204.8L68.27 102.4C68.27 83.5505 83.5505 68.27 102.4 68.27L204.8 68.27C223.424 67.9512 238.356 52.7622 238.356 34.135C238.356 15.5078 223.424 0.318804 204.8 0Z" fill="#333333" fill-rule="nonzero" opacity="1" stroke="none"/>
</g>
</svg>
